<svg viewBox="0 0 500 400" xmlns="http://www.w3.org/2000/svg" role="img" aria-labelledby="logoTitle logoDescription">
  <title id="logoTitle">CodeForge Systems</title>
  <desc id="logoDescription">Símbolo de código e circuitos da CodeForge Systems</desc>

  <path d="M 145 125 L 155 135 L 175 155 L 185 165 L 205 185 L 195 195 L 175 215 L 165 225 L 155 235 L 145 245"
        stroke="#4f91a5" stroke-width="8" stroke-linecap="round" stroke-linejoin="round" fill="none"/>
  <path d="M 355 125 L 345 135 L 325 155 L 315 165 L 295 185 L 305 195 L 325 215 L 335 225 L 345 235 L 355 245"
        stroke="#4f91a5" stroke-width="8" stroke-linecap="round" stroke-linejoin="round" fill="none"/>

  <circle cx="250" cy="115" r="8" fill="#d4851f"/>
  <circle cx="250" cy="115" r="4" fill="#f4a540"/>
  <line x1="250" y1="123" x2="250" y2="145" stroke="#d4851f" stroke-width="4"/>
  <circle cx="250" cy="145" r="4" fill="#d4851f"/>
  <line x1="246" y1="145" x2="225" y2="145" stroke="#d4851f" stroke-width="4"/>
  <line x1="225" y1="145" x2="225" y2="165" stroke="#d4851f" stroke-width="4"/>
  <line x1="225" y1="165" x2="240" y2="165" stroke="#d4851f" stroke-width="4"/>
  <circle cx="225" cy="155" r="4" fill="#d4851f"/>
  <circle cx="280" cy="155" r="6" fill="#d4851f"/>
  <circle cx="280" cy="155" r="3" fill="#f4a540"/>
  <line x1="254" y1="145" x2="275" y2="145" stroke="#d4851f" stroke-width="4"/>
  <line x1="275" y1="145" x2="275" y2="155" stroke="#d4851f" stroke-width="4"/>
  <line x1="280" y1="161" x2="280" y2="185" stroke="#d4851f" stroke-width="4"/>
  <line x1="280" y1="185" x2="254" y2="185" stroke="#d4851f" stroke-width="4"/>
  <line x1="250" y1="149" x2="250" y2="181" stroke="#d4851f" stroke-width="4"/>
  <circle cx="250" cy="185" r="4" fill="#d4851f"/>
  <circle cx="225" cy="215" r="6" fill="#d4851f"/>
  <circle cx="225" cy="215" r="3" fill="#f4a540"/>
  <line x1="246" y1="185" x2="225" y2="185" stroke="#d4851f" stroke-width="4"/>
  <line x1="225" y1="185" x2="225" y2="209" stroke="#d4851f" stroke-width="4"/>
  <line x1="250" y1="189" x2="250" y2="245" stroke="#d4851f" stroke-width="4"/>
  <circle cx="250" cy="255" r="8" fill="#d4851f"/>
  <circle cx="250" cy="255" r="4" fill="#f4a540"/>

  <text x="250" y="335" text-anchor="middle" font-family="Arial, sans-serif" font-size="42" font-weight="bold" fill="#e5edf7">CODEFORGE</text>
  <text x="250" y="380" text-anchor="middle" font-family="Arial, sans-serif" font-size="16" fill="#94a3b8" letter-spacing="3">SYSTEMS</text>
</svg>
